<svg width="0" height="0" class="hidden">
  <symbol fill="none" xmlns="http://www.w3.org/2000/svg" viewBox="0 0 30 30" id="cost-icon">
    <path d="M4.984 26.657a.59.59 0 00-.828 0 .59.59 0 00-.172.414.59.59 0 00.586.586.59.59 0 00.586-.586.59.59 0 00-.172-.414zM27.512 10.72a.589.589 0 00-.829 0 .59.59 0 00-.172.414.59.59 0 00.586.585.59.59 0 00.587-.585.589.589 0 00-.172-.415z" fill="#FFBB01"></path>
    <path d="M29.828.172A.586.586 0 0029.414 0H15a.586.586 0 00-.586.587v1.675L8.86 3.751a.586.586 0 00-.415.717l2.88 10.743-2.491 2.49a1.757 1.757 0 00-1.451-.767H1.758A1.76 1.76 0 000 18.692v9.55c0 .97.789 1.759 1.758 1.759h5.625a1.76 1.76 0 001.706-1.335l.697.607a2.952 2.952 0 001.94.728h17.688a.586.586 0 00.586-.586V.586a.587.587 0 00-.172-.414zM7.968 28.243a.587.587 0 01-.585.586H1.758a.587.587 0 01-.586-.586v-9.55c0-.324.263-.587.586-.587h2.226v6.75a.586.586 0 001.172 0v-6.75h2.227c.323 0 .586.263.586.586v9.551zM9.73 4.731l4.685-1.255v2.17l-.393.106a.586.586 0 00-.414.718 1.58 1.58 0 01-1.116 1.932.586.586 0 00-.414.719l2.284 8.457h-1.176l-.606-2.37a.585.585 0 00-.098-.206L9.729 4.73zm4.685 3.603v4.944l-1.069-3.957c.447-.23.812-.575 1.069-.987zm8.418 20.495H11.726a1.78 1.78 0 01-1.17-.439L9.14 27.156v-8.104l2.558-2.558.464 1.815c.066.26.3.441.567.441h11.52a.821.821 0 010 1.641h-5.902a.586.586 0 000 1.172h7.736a.821.821 0 010 1.64h-7.736a.586.586 0 000 1.173h6.483a.821.821 0 010 1.64h-6.483a.586.586 0 000 1.172h4.484a.821.821 0 010 1.64zm5.996 0h-4.181a1.979 1.979 0 000-1.64h.184a1.994 1.994 0 001.78-2.885 1.995 1.995 0 001.466-1.92c0-.445-.147-.856-.394-1.187V13.77a.586.586 0 00-1.172 0v6.668a1.991 1.991 0 00-.427-.047h-.019a1.994 1.994 0 00-1.815-2.813h-.942A2.808 2.808 0 0025.011 15a2.807 2.807 0 00-2.804-2.804A2.807 2.807 0 0019.403 15c0 1.156.702 2.15 1.702 2.579h-3.203V6.437a2.758 2.758 0 002.101-2.1h4.408a2.758 2.758 0 002.1 2.1V8.26a.586.586 0 101.172 0V5.914a.586.586 0 00-.586-.586 1.58 1.58 0 01-1.577-1.577.586.586 0 00-.586-.586H19.48a.586.586 0 00-.586.586 1.58 1.58 0 01-1.578 1.577.586.586 0 00-.586.586V17.58h-1.144V1.173l13.242-.001v27.657zm-6.621-12.196a1.634 1.634 0 010-3.265 1.634 1.634 0 010 3.265z" fill="#FFBB01"></path>
  </symbol>
  <symbol fill="none" xmlns="http://www.w3.org/2000/svg" viewBox="0 0 50 50" id="deadline-img">
    <path d="M42.11 36.703l-2.949 2.95-1.767-1.775a.836.836 0 10-1.182 1.183l2.357 2.358a.833.833 0 001.184 0l3.574-3.541a.833.833 0 10-1.175-1.175h-.041z" fill="#FFBB01"></path>
    <path d="M43.327 30.912V28.33a.833.833 0 00-.833-.833h-2.5v-.833a2.5 2.5 0 012.5-2.5.833.833 0 000-1.666 4.166 4.166 0 00-4.166 4.166v.833h-2.5a.833.833 0 00-.833.833v2.583a9.999 9.999 0 108.332 0zm-3.333 17.414v-.833a.833.833 0 00-1.666 0v.833a8.332 8.332 0 01-7.5-7.499h.834a.833.833 0 000-1.666h-.833a8.332 8.332 0 015.258-6.924.834.834 0 00.533-.775v-2.3h5v2.3c0 .344.212.651.532.775a8.332 8.332 0 015.341 6.924h-.833a.833.833 0 000 1.666h.833a8.332 8.332 0 01-7.499 7.5z" fill="#FFBB01"></path>
    <path d="M26.838 43.327H4.166a2.5 2.5 0 01-2.5-2.5V14.165h43.327v15.38a.833.833 0 001.667 0V8.333c0-2.3-1.865-4.166-4.166-4.166h-1.667v-.833a.833.833 0 00-1.666 0v3.333a1.667 1.667 0 01-3.333 0V3.333c0-.92.746-1.667 1.667-1.667a.833.833 0 000-1.666 3.333 3.333 0 00-3.333 3.333v.833h-7.5v-.833a.833.833 0 00-1.666 0v3.333a1.667 1.667 0 01-3.332 0V3.333c0-.92.746-1.667 1.666-1.667a.833.833 0 100-1.666 3.333 3.333 0 00-3.333 3.333v.833h-7.499v-.833a.833.833 0 00-1.666 0v3.333a1.667 1.667 0 01-3.333 0V3.333c0-.92.746-1.667 1.666-1.667a.833.833 0 000-1.666 3.333 3.333 0 00-3.333 3.333v.833H4.166A4.166 4.166 0 000 8.332v32.495a4.166 4.166 0 004.166 4.166H23.33c4.374 0 4.374 0 4.374-.833a.834.834 0 00-.241-.591.832.832 0 00-.625-.242zM4.166 5.832h1.666v.834a3.333 3.333 0 006.666 0v-.834h7.5v.834a3.333 3.333 0 006.665 0v-.834h7.499v.834a3.333 3.333 0 006.665 0v-.834h1.667a2.5 2.5 0 012.5 2.5v4.166H1.665V8.332a2.5 2.5 0 012.5-2.5z" fill="#FFBB01"></path>
    <path d="M14.998 17.497a.833.833 0 00-.833-.833H7.499a.833.833 0 00-.833.833v6.666c0 .46.373.833.833.833h6.666c.46 0 .833-.373.833-.833v-6.666zm-1.666 5.833h-5v-5h5v5zm.833 6.666a.833.833 0 000-1.667H7.499a.833.833 0 00-.833.833v6.666c0 .46.373.833.833.833h6.666c.46 0 .833-.373.833-.833v-3.333a.833.833 0 00-1.666 0v2.5h-5v-5h5.833zm4.999-1.666a.833.833 0 00-.833.832v6.666c0 .46.373.833.833.833h6.666c.46 0 .833-.373.833-.833v-6.666a.833.833 0 00-.833-.833h-6.666zm5.832 6.665h-4.999v-5h5v5zM37.495 23.33c.46 0 .833-.373.833-.833v-5a.833.833 0 00-.833-.833h-6.666a.833.833 0 00-.833.833v6.666a.833.833 0 001.666 0v-5.832h5v4.166c0 .46.373.833.833.833zm-11.074-6.424a.833.833 0 00-1.183 0l-2.741 2.75-2.741-2.75a.837.837 0 00-1.183 1.183l2.749 2.741-2.75 2.742a.832.832 0 000 1.183.832.832 0 001.184 0l2.74-2.75 2.742 2.75a.832.832 0 001.183 0 .832.832 0 000-1.183l-2.75-2.742 2.75-2.741a.832.832 0 000-1.183z" fill="#FFBB01"></path>
  </symbol>
  <symbol width="17px" height="17px" fill="none" xmlns="http://www.w3.org/2000/svg" viewBox="0 0 18 18" id="facebook">
    <path d="M2.53 17.454h5.634V11.49H6.14V9.524h2.024V7.067c0-1.355 1.135-2.458 2.53-2.458h2.53v1.966H11.2c-.558 0-1.012.441-1.012.983v1.966h2.945l-.337 1.966h-2.608v5.964h4.554c1.396 0 2.53-1.103 2.53-2.458V3.135c0-1.355-1.134-2.457-2.53-2.457H2.53C1.135.678 0 1.78 0 3.135v11.861c0 1.355 1.135 2.458 2.53 2.458zM1.012 3.135c0-.813.681-1.474 1.518-1.474h12.213c.837 0 1.518.661 1.518 1.474v11.861c0 .813-.681 1.475-1.518 1.475H11.2v-3.998h2.453l.675-3.932H11.2v-.983h3.037V3.627h-3.543c-1.953 0-3.542 1.543-3.542 3.44V8.54H5.128v3.932h2.024v3.998H2.53c-.837 0-1.518-.662-1.518-1.475V3.135z" fill="#fff"></path>
  </symbol>
  <symbol fill="none" xmlns="http://www.w3.org/2000/svg" viewBox="0 0 30 26" id="feedback-icon">
    <path d="M19.74 3.757c-.728 0-1.414.287-1.922.786a2.738 2.738 0 00-1.921-.786 2.748 2.748 0 00-2.745 2.746c0 1.388.783 2.802 2.264 4.089a11.95 11.95 0 002.204 1.512.439.439 0 00.396 0 11.95 11.95 0 002.204-1.512c1.482-1.287 2.265-2.701 2.265-4.09a2.748 2.748 0 00-2.745-2.745zm-1.922 7.455c-.806-.456-3.788-2.305-3.788-4.71a1.87 1.87 0 011.867-1.866c.626 0 1.208.313 1.555.836a.44.44 0 00.732 0 1.864 1.864 0 011.556-.836c1.029 0 1.866.838 1.866 1.867 0 2.404-2.982 4.253-3.788 4.709zm8.924-7.455h-2.348a.44.44 0 000 .88h2.348a.44.44 0 000-.88zm-.939 4.697h-1.41a.44.44 0 000 .88h1.41a.44.44 0 000-.88zm.939-2.348h-2.348a.44.44 0 000 .879h2.348a.44.44 0 000-.879zM8.894 10.742a.44.44 0 100-.878h-.94a.44.44 0 000 .878h.94zm-4.697 0h1.879a.44.44 0 100-.878h-1.88a.44.44 0 000 .878zm0 2.349h4.697a.44.44 0 000-.879H4.197a.44.44 0 100 .88zM9.333 15a.44.44 0 00-.44-.44H4.198a.44.44 0 000 .88h4.697a.44.44 0 00.44-.44zm-1.378 2.788h7.515a.44.44 0 100-.88H7.955a.44.44 0 000 .88zm-3.758-.879a.44.44 0 000 .879h1.879a.44.44 0 100-.88h-1.88zm21.606-6.106h-1.41a.44.44 0 000 .879h1.41a.44.44 0 000-.879z" fill="#FFBB01"></path>
    <path d="M28.151 0h-15.97a1.85 1.85 0 00-1.848 1.849V13.59c0 1.02.83 1.848 1.849 1.848h10.151l3.297 3.297a.907.907 0 00.99.197.906.906 0 00.562-.84V15.44h.97A1.85 1.85 0 0030 13.59V1.85A1.85 1.85 0 0028.151 0zm.97 13.59a.97.97 0 01-.97.97h-1.409a.44.44 0 00-.439.44v3.093c0 .01 0 .02-.019.028-.018.008-.025.001-.033-.006l-3.425-3.426a.44.44 0 00-.31-.129H12.181a.97.97 0 01-.97-.97V1.85a.97.97 0 01.97-.97h15.97a.97.97 0 01.969.97v11.74z" fill="#FFBB01"></path>
    <path d="M19.227 16.44a.44.44 0 00-.44.439v2.818a.97.97 0 01-.969.97H7.485a.44.44 0 00-.31.128l-3.426 3.426c-.008.007-.015.014-.033.006-.019-.007-.019-.017-.019-.028v-3.093a.44.44 0 00-.44-.44H1.85a.97.97 0 01-.97-.969V7.955a.97.97 0 01.97-.97h7.045a.44.44 0 000-.879H1.85A1.85 1.85 0 000 7.955v11.742c0 1.02.83 1.849 1.849 1.849h.97v2.653a.906.906 0 00.91.91.907.907 0 00.641-.267l3.297-3.296h10.151a1.85 1.85 0 001.849-1.849v-2.818a.44.44 0 00-.44-.44z" fill="#FFBB01"></path>
  </symbol>
  <symbol width="17px" height="17px" fill="none" xmlns="http://www.w3.org/2000/svg" viewBox="0 0 18 17" id="github">
    <path d="M8.636 0C3.89 0 0 3.81 0 8.42c0 4.584 3.854 8.356 8.636 8.356 4.777 0 8.637-3.766 8.637-8.355C17.273 3.81 13.383 0 8.636 0zm1.519 15.646a7.713 7.713 0 01-1.519.147c-.516 0-1.032-.05-1.518-.147v-2.3c0-.551.152-.748.354-1.013.104-.114.166-.217.628-.895l-.78-.118c-2.003-.284-2.793-1.297-3.106-2.083-.405-1.052-.193-2.37.536-3.205a.58.58 0 00.122-.57c-.152-.452-.132-1.17-.03-1.445.536.074 1.087.448 1.548.718.212.12.323.088.425.098.37-.075.946-.256 1.831-.256.547 0 1.124.079 1.69.236.102-.002.265.082.547-.078.481-.285 1.014-.646 1.549-.718.1.275.121.993-.03 1.445a.58.58 0 00.12.57c.73.836.942 2.153.537 3.205-.314.786-1.103 1.799-3.107 2.083l-.78.118c.479.7.529.785.628.895.203.265.354.462.354 1.012v2.3zm1.011-.286v-2.015c0-.56-.121-.933-.283-1.209 1.539-.403 2.632-1.287 3.117-2.555.517-1.337.284-2.93-.577-4.03.152-.66.152-1.71-.212-2.202a.797.797 0 00-.668-.335h-.01c-.785.042-1.403.425-2.065.816a7.186 7.186 0 00-3.653 0c-.697-.408-1.31-.775-2.116-.816a.783.783 0 00-.637.335c-.365.491-.365 1.543-.213 2.201-.86 1.101-1.093 2.704-.577 4.03.486 1.269 1.58 2.153 3.118 2.556a2.093 2.093 0 00-.264.862c-.311.104-.58.138-.831.066-.265-.076-.47-.247-.65-.54-.402-.655-1.086-1.19-1.866-1.121l.09.979c.36-.032.72.339.906.645.308.503.723.833 1.233.98a2.2 2.2 0 001.098.028v1.325c-2.945-1.002-5.094-3.735-5.094-6.94 0-4.069 3.434-7.437 7.624-7.437 4.19 0 7.625 3.368 7.625 7.438 0 3.204-2.15 5.937-5.095 6.94z" fill="#fff"></path>
  </symbol>
  <symbol width="17px" height="17px" fill="none" xmlns="http://www.w3.org/2000/svg" viewBox="0 0 18 17" id="instagram">
    <path d="M2.53 16.894h12.213c1.395 0 2.53-1.102 2.53-2.457V2.576c0-1.355-1.135-2.458-2.53-2.458H2.53C1.135.118 0 1.221 0 2.576v11.86c0 1.356 1.135 2.458 2.53 2.458zM1.012 2.576c0-.813.681-1.475 1.518-1.475h12.213c.837 0 1.518.662 1.518 1.475v11.86c0 .814-.681 1.475-1.518 1.475H2.53c-.837 0-1.518-.661-1.518-1.474V2.576z" fill="#fff"></path>
    <path d="M8.636 12.93c2.512 0 4.555-1.985 4.555-4.424s-2.043-4.423-4.555-4.423c-2.51 0-4.554 1.984-4.554 4.423 0 2.44 2.043 4.424 4.554 4.424zm0-7.864c1.954 0 3.543 1.543 3.543 3.44s-1.59 3.44-3.543 3.44-3.542-1.543-3.542-3.44 1.59-3.44 3.542-3.44zm4.774-.239c.826 0 1.5-.653 1.5-1.456 0-.804-.674-1.457-1.5-1.457-.828 0-1.5.653-1.5 1.457 0 .803.672 1.456 1.5 1.456zm0-1.942c.275 0 .5.218.5.486a.494.494 0 01-.5.485.494.494 0 01-.5-.485c0-.268.223-.486.5-.486z" fill="#fff"></path>
  </symbol>
  <symbol fill="none" xmlns="http://www.w3.org/2000/svg" viewBox="0 0 50 50" id="offer-img">
    <path d="M49.904 11.852a2.499 2.499 0 00-1.167-1.516 2.5 2.5 0 00-3.416.916l-.417.725a.833.833 0 00-1.133.3l-2.116 3.607-.725-.416a.834.834 0 00-1.142.308.834.834 0 00.309 1.133l.725.417-7.082 12.273-1.75 4.674-.833 1.558a2.5 2.5 0 00.133 2.7l-1.875 2.3-.524-1.317a1.666 1.666 0 00-2.975-.233l-.3.508-.283-3.333a1.667 1.667 0 00-3.241-.392l-2.05 6.15a.833.833 0 00.525 1.05.72.72 0 00.258.066.833.833 0 00.792-.567l2.041-6.148.292 3.382a1.666 1.666 0 003.09.717l.31-.509.516 1.309a1.666 1.666 0 002.85.424l1.94-2.457c.215.056.437.084.659.083a2.5 2.5 0 002.174-1.233l.834-1.392 3.174-3.857 7.157-12.423.725.416a.833.833 0 01.309 1.142l-3.333 5.774a.832.832 0 00.266 1.175.832.832 0 001.142-.308l3.333-5.775a2.498 2.498 0 00-.917-3.416l-.725-.416 2.083-3.608a.833.833 0 00-.3-1.133l.417-.725a2.5 2.5 0 00.25-1.933zm-3.142.233a.833.833 0 01.509-.391.875.875 0 01.633.083c.193.11.334.293.392.508a.875.875 0 01-.084.633l-.416.725-1.45-.833.416-.725zM35.406 35.348l-.417-.242-1.233-.716 1.183-3.166 2.625 1.516-2.158 2.608zm-2.5 2.408a.833.833 0 01-.25-1.092l.417-.724 1.45.833-.417.716a.833.833 0 01-1.2.267zm5.608-6.382l-2.883-1.667 6.666-11.548 2.882 1.666-6.665 11.549zm7.499-12.99l-2.883-1.666 1.666-2.883L47.68 15.5l-1.666 2.883zm-32.865 18.96l-2.95 2.941-1.766-1.766a.833.833 0 10-1.175 1.183l1.767 1.766c.312.31.734.484 1.175.483.442.003.868-.17 1.183-.483l2.94-2.95a.833.833 0 00-1.174-1.174z" fill="#FFBB01"></path>
    <path d="M3.333 39.585a7.082 7.082 0 1014.164 0 .833.833 0 00-1.666 0 5.416 5.416 0 11-2.167-4.332.833.833 0 101-1.334 7.083 7.083 0 00-11.331 5.666zM29.995 6.674a.833.833 0 100-1.667H8.332a.833.833 0 00-.833.834v3.332c0 .46.373.834.833.834h21.663a.833.833 0 100-1.667H9.165V6.674h20.83zm-19.163 4.999a.833.833 0 000 1.666h16.663a.833.833 0 100-1.666H10.831zm21.663 5.832h-18.33a.833.833 0 000 1.667h18.33a.833.833 0 100-1.667zm-8.332 5.833a.833.833 0 00-.834-.834H6.666a.833.833 0 000 1.667h16.663c.46 0 .834-.373.834-.833zm8.331-.833h-5.832a.833.833 0 000 1.666h5.832a.833.833 0 100-1.666zm-17.497 5.832a.833.833 0 100-1.666H6.666a.833.833 0 100 1.666h8.331zm3.333 0h5.833a.833.833 0 100-1.666H18.33a.833.833 0 000 1.666z" fill="#FFBB01"></path>
    <path d="M37.494 38.335a.833.833 0 00-.834.833V47.5c0 .46-.373.834-.833.834H2.5a.833.833 0 01-.834-.834V2.508c0-.46.373-.833.834-.833h33.327c.46 0 .833.373.833.833v15.648a.833.833 0 001.667 0V2.508a2.5 2.5 0 00-2.5-2.5H2.5a2.5 2.5 0 00-2.5 2.5V47.5A2.5 2.5 0 002.5 50h33.327a2.5 2.5 0 002.5-2.5v-8.332a.833.833 0 00-.833-.833z" fill="#FFBB01"></path>
  </symbol>
  <symbol fill="none" xmlns="http://www.w3.org/2000/svg" viewBox="0 0 15 15" id="phone-icon">
    <path d="M11.844 9.292c-.307-.32-.678-.49-1.07-.49-.39 0-.763.167-1.083.487l-1 .997-.244-.127a4.043 4.043 0 01-.314-.167c-.937-.596-1.788-1.371-2.605-2.375-.396-.5-.662-.921-.855-1.348.26-.238.5-.485.735-.722l.266-.27c.664-.664.664-1.525 0-2.19l-.865-.864c-.098-.098-.2-.2-.294-.301-.19-.196-.39-.399-.595-.589-.307-.304-.675-.465-1.06-.465-.387 0-.76.161-1.077.465l-.007.006L.7 2.425a2.32 2.32 0 00-.687 1.472c-.076.925.196 1.786.405 2.35.513 1.383 1.28 2.665 2.422 4.04a14.9 14.9 0 004.961 3.884c.728.345 1.7.753 2.786.823.066.003.136.006.2.006.73 0 1.345-.263 1.826-.785.003-.006.01-.01.013-.016.164-.2.354-.38.554-.573.136-.13.275-.266.411-.408.314-.326.478-.706.478-1.096 0-.392-.167-.769-.487-1.086l-1.738-1.744zm1.133 3.334c-.003 0-.003.003 0 0-.123.133-.25.253-.386.386a8.291 8.291 0 00-.611.633c-.32.342-.697.503-1.19.503-.048 0-.099 0-.146-.003-.94-.06-1.814-.427-2.47-.74a14.064 14.064 0 01-4.672-3.66C2.422 8.444 1.7 7.24 1.222 5.949.928 5.16.82 4.546.868 3.967a1.45 1.45 0 01.437-.94l1.08-1.08c.154-.145.319-.225.48-.225.2 0 .361.12.463.222l.01.01c.192.18.376.367.569.566.098.102.2.203.3.307l.865.865c.336.335.336.645 0 .981-.092.092-.18.184-.272.272-.266.273-.52.526-.795.773-.006.006-.012.01-.016.016-.272.272-.221.538-.164.718l.01.029c.224.544.54 1.057 1.022 1.668l.003.003c.874 1.077 1.795 1.916 2.811 2.558.13.083.263.15.39.212.114.057.221.111.313.168.013.007.025.016.038.022.108.054.209.08.313.08.263 0 .428-.165.482-.219l1.082-1.083c.108-.107.279-.237.478-.237.197 0 .358.123.456.231l.007.006 1.744 1.745c.326.323.326.655.003.99zM8.095 3.568c.83.14 1.583.532 2.185 1.133.601.602.99 1.355 1.133 2.185a.425.425 0 00.421.354c.026 0 .048-.003.073-.006a.428.428 0 00.352-.494 4.883 4.883 0 00-1.371-2.643 4.883 4.883 0 00-2.644-1.371.43.43 0 00-.494.348.423.423 0 00.345.494zm6.877 3.049a8.033 8.033 0 00-2.258-4.353A8.033 8.033 0 008.361.007a.426.426 0 10-.139.842c1.475.25 2.82.95 3.89 2.016a7.172 7.172 0 012.018 3.891.425.425 0 00.42.355.42.42 0 00.421-.494z" fill="#949494"></path>
  </symbol>
  <symbol fill="none" xmlns="http://www.w3.org/2000/svg" viewBox="0 0 50 50" id="steps-img">
    <path d="M48.328 35.635v-2.3h.833a.83.83 0 00.608-.258.883.883 0 00.225-.575l-1.491-28.33a4.35 4.35 0 00-8.683 0l-1.491 28.33a.885.885 0 00.225.617c.165.15.384.229.608.216h.833v2.3l-1.575 3.158a.833.833 0 000 .75l5 9.999c.04.092.1.174.175.241.097.09.214.156.342.192h.458a.833.833 0 00.341-.192.714.714 0 00.175-.241l5-9.999a.833.833 0 000-.75l-1.583-3.158zm-8.291-3.966l.35-6.666h7.549l.392 6.666h-8.291zm1.45-27.455a2.675 2.675 0 115.35 0l1.007 19.164H40.48l.091-1.666h4.641a.833.833 0 100-1.667h-4.557l.833-15.831zm5.174 29.121v1.667h-5v-1.667h5zm-1.666 12.299v-5.633h.833a.833.833 0 000-1.666h-3.333a.833.833 0 000 1.666h.833v5.633l-3.233-6.466 1.25-2.5h5.633l1.25 2.5-3.233 6.466zM28.33 10.838a.833.833 0 000-1.667H6.666a.833.833 0 00-.833.834v3.333c0 .46.373.833.833.833H28.33a.833.833 0 000-1.667H7.5v-1.666h20.83zm.833 7.499a.833.833 0 00-.833-.833H10a.833.833 0 000 1.666h18.33c.46 0 .833-.373.833-.833zM5 22.503c0 .46.373.833.833.833h13.332a.833.833 0 000-1.666H5.832a.833.833 0 00-.834.833zm19.164-.833a.833.833 0 000 1.666h3.333a.833.833 0 000-1.666h-3.333zm-7.499 5a.833.833 0 00-.833-.834h-10a.833.833 0 100 1.667h10c.46 0 .833-.374.833-.834zm-.833 4.166a.833.833 0 00-.834-.834H5.833a.833.833 0 000 1.667h9.165c.46 0 .834-.373.834-.833zm-9.999 3.333a.833.833 0 100 1.666h5.832a.833.833 0 000-1.666H5.833z" fill="#FFBB01"></path>
    <path d="M32.496.006H2.5a2.5 2.5 0 00-2.5 2.5v38.328a2.5 2.5 0 002.5 2.5h14.165a.833.833 0 100-1.666H2.5a.833.833 0 01-.834-.834V7.504H33.33v33.33c0 .46-.374.834-.834.834h-2.5a.833.833 0 000 1.666h2.5a2.5 2.5 0 002.5-2.5V2.505a2.5 2.5 0 00-2.5-2.5zM1.666 5.838V2.505c0-.46.374-.833.834-.833h29.996c.46 0 .834.373.834.833v3.333H1.666z" fill="#FFBB01"></path>
    <path d="M23.33 30.835a2.5 2.5 0 100 5 2.5 2.5 0 000-5zm0 3.333a.833.833 0 110-1.666.833.833 0 010 1.666z" fill="#FFBB01"></path>
    <path d="M29.997 33.335a2.5 2.5 0 00-1.334-2.208 2.5 2.5 0 00-3.124-3.124 2.5 2.5 0 00-4.416 0 2.5 2.5 0 00-3.125 3.124 2.499 2.499 0 000 4.416 2.5 2.5 0 00.616 2.5c.163.162.348.3.55.408v10.716a.833.833 0 00.517.766c.31.13.669.062.908-.175l2.742-2.75 2.741 2.75a.832.832 0 00.908.175.833.833 0 00.517-.766V38.459a2.37 2.37 0 00.55-.408 2.5 2.5 0 00.616-2.5 2.5 2.5 0 001.334-2.216zm-6.075 11.907a.833.833 0 00-1.183 0l-1.908 1.916v-8.415l.292-.075a2.499 2.499 0 004.416 0l.291.075v8.415l-1.908-1.916zm3.575-11.074h-.142a.834.834 0 00-.591 1.425l.1.1a.834.834 0 010 1.175.792.792 0 01-.334.209h-.125a.834.834 0 01-.716-.234l-.1-.1a.833.833 0 00-1.425.592v.166a.833.833 0 01-1.667 0v-.141a.834.834 0 00-.516-.775.833.833 0 00-.317-.059.834.834 0 00-.591.242l-.1.1a.832.832 0 01-.717.233h-.125a.784.784 0 01-.334-.208.833.833 0 010-1.175l.11-.1a.834.834 0 00-.593-1.424h-.15a.833.833 0 010-1.667h.142a.834.834 0 00.592-1.425l-.1-.1a.834.834 0 011.175-1.183l.1.108a.833.833 0 001.424-.591v-.167a.833.833 0 111.667 0v.142a.833.833 0 001.425.591l.1-.1a.834.834 0 011.183 1.175l-.108.1a.834.834 0 00.591 1.425h.142a.833.833 0 010 1.666z" fill="#FFBB01"></path>
  </symbol>
  <symbol fill="none" xmlns="http://www.w3.org/2000/svg" viewBox="0 0 50 50" id="storage-img">
    <path d="M49.167 24.167H30.108a.833.833 0 000 1.666h18.225v8.334h-4.166v-5.834a.833.833 0 00-1.667 0v5.834H20v-8.334h5a.833.833 0 000-1.666h-5.833a.833.833 0 00-.834.833v10c0 .46.373.833.834.833h7.5V37.5h-7.5a.833.833 0 00-.834.833v5.834h-2.5v-.834A.833.833 0 0015 42.5h-2.5v-4.167a.833.833 0 10-1.667 0v5c0 .46.373.834.834.834h2.5v1.666H5.833v-1.666h2.5c.46 0 .834-.373.834-.834v-5a.833.833 0 10-1.667 0V42.5H5a.833.833 0 00-.833.833v.834H.833a.833.833 0 000 1.666h3.334v.834c0 .46.373.833.833.833h10c.46 0 .833-.373.833-.833v-.834h2.5v2.5c0 .46.373.834.834.834h30c.46 0 .833-.373.833-.834v-10a.833.833 0 00-.833-.833h-7.5v-1.667h7.5c.46 0 .833-.373.833-.833V25a.833.833 0 00-.833-.833zM48.333 47.5H20v-8.333h22.5V45a.833.833 0 001.667 0v-5.833h4.166V47.5zM40 37.5H28.333v-1.667H40V37.5z" fill="#FFBB01"></path>
    <path d="M25 27.5a2.5 2.5 0 100 5 2.5 2.5 0 000-5zm0 3.333a.833.833 0 110-1.667.833.833 0 010 1.667zm5 1.667c.46 0 .833-.373.833-.833v-3.334a.833.833 0 00-1.666 0v3.334c0 .46.373.833.833.833zm4.167-.833v-3.334a.833.833 0 00-1.667 0v3.334a.833.833 0 001.667 0zm3.333 0v-3.334a.833.833 0 00-1.667 0v3.334a.833.833 0 001.667 0zm3.333 0v-3.334a.833.833 0 00-1.666 0v3.334a.833.833 0 001.666 0zM26.666 42.5a.833.833 0 00-.833.833A.833.833 0 1125 42.5a.833.833 0 000-1.667 2.5 2.5 0 102.5 2.5.833.833 0 00-.834-.833zM30 40.833a.833.833 0 00-.833.834V45a.833.833 0 001.666 0v-3.333a.833.833 0 00-.833-.834zm3.333 0a.833.833 0 00-.833.834V45a.833.833 0 001.667 0v-3.333a.833.833 0 00-.834-.834zm3.334 0a.833.833 0 00-.834.834V45a.833.833 0 001.667 0v-3.333a.833.833 0 00-.833-.834zm3.333 0a.833.833 0 00-.834.834V45a.833.833 0 001.667 0v-3.333a.833.833 0 00-.833-.834zM6.317 29.842a.88.88 0 00.35.075.833.833 0 00.35-1.584 9.166 9.166 0 016.316-17.15.833.833 0 001.009-.5A14.083 14.083 0 0127.5 1.668a14.25 14.25 0 0113.833 11.125.833.833 0 00.684.642 7.5 7.5 0 016.316 7.4 6.49 6.49 0 01-.05.724.835.835 0 101.659.184 7.95 7.95 0 00.058-.909 9.117 9.117 0 00-7.167-8.941A15.933 15.933 0 0027.5 0a15.742 15.742 0 00-14.458 9.4 10.462 10.462 0 00-2.209-.233 10.834 10.834 0 00-4.516 20.675z" fill="#FFBB01"></path>
    <path d="M13.333 30.509c.07.011.14.011.209 0A10.54 10.54 0 0016.25 29.4a.833.833 0 00-.833-1.441 9.182 9.182 0 01-2.292.941.84.84 0 00.208 1.667v-.058z" fill="#FFBB01"></path>
    <path d="M10 35.833c.46 0 .834-.373.834-.833V21.917l1.808 2.708a.833.833 0 00.692.375.78.78 0 00.458-.142.833.833 0 00.233-1.15l-3.333-5-.042-.041a.833.833 0 00-1.3 0l-.042.041-3.333 5a.833.833 0 001.384.917l1.808-2.708V35c0 .46.373.833.833.833zm21.291-20.691a.833.833 0 00-1.15.233l-1.808 2.709v-9.75a.833.833 0 00-1.666 0v9.75l-1.809-2.709a.834.834 0 10-1.383.917l3.333 5a.834.834 0 001.384 0l3.333-5a.833.833 0 00-.234-1.15z" fill="#FFBB01"></path>
  </symbol>
  <symbol fill="none" xmlns="http://www.w3.org/2000/svg" viewBox="0 0 30 32" id="time-icon">
    <path d="M15.869 20.201a1.892 1.892 0 001.386-.775l4.979-6.884a.532.532 0 00-.743-.742l-6.885 4.98a1.892 1.892 0 00-.225 2.872 1.89 1.89 0 001.488.55zm-.977-1.953a.83.83 0 01.34-.608l4.198-3.038-3.037 4.199a.832.832 0 01-1.5-.553z" fill="#FFBB01"></path>
    <path d="M27.78 10.404c-.005-.011-.005-.023-.01-.034-.007-.011-.017-.017-.024-.027a14.457 14.457 0 00-1.896-2.557l1.142-1.142.752.752L30 5.14l-2.256-2.256-2.256 2.256.752.752-1.142 1.142a14.435 14.435 0 00-2.557-1.897c-.01-.006-.016-.017-.027-.023-.01-.006-.023-.006-.034-.012a14.257 14.257 0 00-5.463-1.81V2.66h.798a1.33 1.33 0 000-2.659h-4.787a1.33 1.33 0 000 2.659h.798v.615c-.574.06-1.147.154-1.714.284a.532.532 0 10.237 1.037c.49-.113.984-.197 1.479-.254l.57-.044c.175-.014.335-.023.492-.03v1.05a.531.531 0 101.063 0V4.27c2 .092 3.885.63 5.56 1.513l-.524.908a.532.532 0 00.921.532l.523-.906a13.397 13.397 0 014.133 4.133l-.906.523a.532.532 0 00.533.92l.908-.524a13.199 13.199 0 011.515 5.647h-1.05a.531.531 0 100 1.064h1.05a13.199 13.199 0 01-1.515 5.647l-.908-.525a.53.53 0 10-.532.921l.906.523a13.399 13.399 0 01-4.133 4.133l-.523-.905a.53.53 0 10-.92.531l.524.908a13.19 13.19 0 01-5.56 1.513v-1.047a.531.531 0 10-1.064 0v1.051c-.85-.03-1.701-.135-2.54-.328a.531.531 0 10-.238 1.036c1.062.245 2.146.368 3.222.368l.077-.002.01.002.012-.002a14.265 14.265 0 007.03-1.9c.016-.008.033-.011.05-.021.01-.006.016-.017.026-.023a14.464 14.464 0 005.197-5.191c.01-.014.023-.026.032-.041.006-.012.006-.023.01-.035a14.257 14.257 0 001.914-7.145c0-2.6-.699-5.039-1.913-7.144zm-.036-6.016l.752.752-.752.752-.753-.752.753-.752zM14.89 3.202V1.595h-1.862a.267.267 0 01-.265-.266c0-.146.12-.265.265-.265h4.786c.147 0 .266.12.266.265 0 .147-.12.266-.266.266h-1.86v1.607a13.226 13.226 0 00-.533-.011h-.086c-.087 0-.175.005-.262.007-.062.002-.12.001-.183.004zm-4.254 4.243h-2.66a.531.531 0 100 1.063h2.66a.531.531 0 100-1.063zm0 3.722H5.318a.531.531 0 100 1.064h5.318a.531.531 0 100-1.064zm0 3.723H2.659a.531.531 0 100 1.063h7.977a.531.531 0 100-1.063zm0 3.722H.532a.531.531 0 100 1.064h10.104a.531.531 0 100-1.064zm-.001 3.722H3.722a.531.531 0 100 1.064h6.913a.531.531 0 100-1.064zm.001 3.723H6.913a.531.531 0 100 1.063h3.723a.531.531 0 100-1.063z" fill="#FFBB01"></path>
  </symbol>
  <symbol width="17px" height="17px" fill="none" xmlns="http://www.w3.org/2000/svg" viewBox="0 0 18 15" id="twitter">
    <path d="M17.273 2.63c-1.087.048-1.063.044-1.186.054L16.731.9s-2.009.717-2.518.846C12.876.578 10.888.526 9.467 1.375c-1.164.695-1.789 1.888-1.58 3.283-2.265-.306-4.174-1.348-5.68-3.106L1.73.996l-.356.635c-.45.803-.6 1.72-.42 2.584.072.354.197.692.37 1.008l-.41-.154-.048.664c-.049.674.182 1.46.618 2.104.123.181.281.38.482.576l-.212-.031.258.76a3.73 3.73 0 001.956 2.201c-.912.376-1.649.616-2.86 1.003L0 12.7l1.023.543c.39.207 1.77.9 3.132 1.107 3.028.461 6.438.085 8.733-1.922 1.933-1.692 2.568-4.097 2.436-6.6-.02-.38.087-.741.3-1.019a318.17 318.17 0 001.649-2.18zm-2.457 1.59a2.495 2.495 0 00-.502 1.658c.133 2.525-.574 4.483-2.103 5.82-1.785 1.561-4.664 2.174-7.9 1.681-.585-.089-1.191-.288-1.692-.488 1.015-.34 1.8-.642 3.066-1.224l1.767-.813-1.951-.12c-.935-.059-1.714-.499-2.192-1.213.254-.015.499-.055.743-.12l1.861-.504-1.877-.447c-.912-.217-1.432-.747-1.707-1.153-.181-.267-.3-.54-.37-.793.188.049.407.084.761.118l1.737.167-1.376-1.043c-.992-.751-1.39-1.88-1.098-2.965 3.095 3.118 6.73 2.884 7.095 2.966-.08-.76-.082-.761-.103-.834-.469-1.608.558-2.425 1.021-2.701.967-.578 2.503-.665 3.566.286.23.206.54.286.831.216a7.36 7.36 0 00.685-.202l-.437 1.21.558.001c-.105.137-.232.3-.383.498z" fill="#fff"></path>
  </symbol>
  <symbol fill="none" xmlns="http://www.w3.org/2000/svg" viewBox="0 0 15 18" id="user-icon">
    <path d="M7.436 9.502h.117c1.07-.018 1.935-.394 2.574-1.114 1.406-1.585 1.173-4.302 1.147-4.56C11.183 1.88 10.263.948 9.503.514 8.937.19 8.276.015 7.538 0h-.062c-.405 0-1.201.066-1.964.5-.767.435-1.702 1.366-1.793 3.327-.026.26-.26 2.976 1.146 4.561.636.72 1.501 1.096 2.571 1.114zM4.694 3.918c0-.01.003-.022.003-.029.12-2.618 1.98-2.9 2.776-2.9h.044c.985.023 2.662.424 2.775 2.9 0 .011 0 .022.004.03.003.025.259 2.508-.903 3.816-.46.518-1.073.774-1.88.781h-.037c-.803-.007-1.42-.263-1.877-.781-1.157-1.3-.91-3.795-.905-3.817z" fill="#949494"></path>
    <path d="M14.999 14.008v-.01c0-.03-.004-.06-.004-.092-.022-.723-.07-2.414-1.654-2.954l-.036-.011c-1.647-.42-3.017-1.37-3.031-1.38a.492.492 0 10-.566.806c.062.044 1.515 1.056 3.334 1.523.85.303.945 1.213.971 2.045 0 .033 0 .062.004.091.003.33-.019.837-.077 1.129-.592.336-2.91 1.497-6.438 1.497-3.513 0-5.847-1.165-6.442-1.5a6.357 6.357 0 01-.077-1.13c0-.028.004-.058.004-.09.026-.833.12-1.742.971-2.045 1.819-.468 3.272-1.483 3.334-1.523a.493.493 0 10-.566-.807c-.014.01-1.376.96-3.03 1.38a.458.458 0 00-.037.011C.074 11.492.027 13.183.005 13.902c0 .033 0 .063-.004.092v.01c-.004.19-.007 1.166.186 1.655a.469.469 0 00.19.23c.11.073 2.735 1.745 7.128 1.745 4.394 0 7.02-1.676 7.129-1.745a.489.489 0 00.19-.23c.182-.486.179-1.46.175-1.65z" fill="#949494"></path>
  </symbol>
  <symbol fill="none" xmlns="http://www.w3.org/2000/svg" viewBox="0 0 50 50" id="agreement-img">
    <path d="M48.514 20.963l-8.241 8.241-4.704-4.712 3.555-3.53a.833.833 0 00-1.174-1.173l-3.563 3.521-2.348-2.356 8.234-8.242a.833.833 0 000-1.174.833.833 0 00-1.174 0l-8.833 8.834a.832.832 0 000 1.182l1.182 1.173-1.182 1.183a4.162 4.162 0 00-5.236-.533l-.65-.65a4.164 4.164 0 00-2.939-1.215c-.52 0-1.037.096-1.523.283l-1.424-1.424.591-.582a.833.833 0 000-1.183l-8.266-8.241a.833.833 0 10-1.174 1.182l7.65 7.65-.59.583-4.163 4.121-2.939-2.947a.832.832 0 10-1.182 1.174l2.947 2.947-1.182 1.174-1.107 1.224-7.651-7.684a.832.832 0 00-1.182 0 .833.833 0 000 1.174l8.242 8.241c.157.156.37.243.59.242a.834.834 0 00.592-.242l1.149-1.174 1.173 1.174a4.163 4.163 0 000 5.886l1.566 1.54a.832.832 0 001.182 0 .833.833 0 000-1.174l-1.54-1.54a2.497 2.497 0 010-3.538l.583-.583 5.893-5.894a2.565 2.565 0 013.53 0l5.295 5.295a.833.833 0 01-1.174 1.174l-3.838-3.838a.839.839 0 10-1.182 1.19l3.838 3.838a2.498 2.498 0 103.538-3.53l-3.43-3.43a2.572 2.572 0 012.839.483l7.068 7.068a2.5 2.5 0 01.725 1.765 2.497 2.497 0 01-.725 1.765l-2.356 2.356-2.414 2.406-1.707 1.715-4.712 4.712a.833.833 0 01-1.174 0 .832.832 0 010-1.174l5.337-5.311a.832.832 0 10-1.174-1.174l-5.303 5.295a.833.833 0 01-1.174-1.174l5.295-5.295a.832.832 0 10-1.174-1.182L20.3 42.158a.832.832 0 11-1.174-1.182l5.295-5.295a.832.832 0 000-1.182.833.833 0 00-1.174 0l-5.303 5.303a.833.833 0 01-1.174-1.182l6.402-6.394a.836.836 0 10-1.182-1.182l-6.435 6.419a2.498 2.498 0 000 3.53c.43.439 1.009.7 1.623.732a2.498 2.498 0 002.356 2.348 2.498 2.498 0 002.356 2.356c.024.626.283 1.22.724 1.665a2.5 2.5 0 002.847.483l.683.69a2.499 2.499 0 004.262-1.664 2.448 2.448 0 001.665-.725c.433-.434.69-1.011.725-1.623a2.497 2.497 0 002.356-2.356 2.497 2.497 0 001.665-4.262l-.591-.583 1.182-1.182a4.163 4.163 0 001.215-2.94 4.164 4.164 0 00-.757-2.297l1.257-1.257.591.591a.833.833 0 001.174 0l8.807-8.833a.832.832 0 10-1.182-1.173zm-36.496 5.885l5.303-5.294 1.173 1.173L13.2 28.03l-1.182-1.182zM28.5 48.044a.832.832 0 01-1.174 0l-.59-.591 1.182-1.174.582.583a.832.832 0 010 1.182zm2.356-2.356a.833.833 0 01-1.174 0l-.55-.591.592-.591.582-.583.592.583a.834.834 0 010 1.182h-.042zm2.356-2.356a.833.833 0 01-1.174 0l-.59-.591 1.173-1.174.591.591a.832.832 0 010 1.174zm2.356-2.356a.834.834 0 01-1.182 0l-.583-.591 1.157-1.174.592.591c.327.32.334.845.016 1.174zm1.174-10.598l-5.295-5.295 1.174-1.173 5.303 5.294-1.182 1.174z" fill="#FFBB01"></path>
    <path d="M15.814 13.32h18.315c.46 0 .833-.373.833-.832V.833A.833.833 0 0034.129 0H15.814a.833.833 0 00-.833.833v11.655c0 .46.373.832.833.832zm.832-3.33c.92 0 1.665.746 1.665 1.665h-1.665V9.99zm16.65 1.665h-1.665c0-.92.746-1.665 1.666-1.665v1.665zm0-8.325a1.666 1.666 0 01-1.665-1.665h1.666V3.33zm0 1.665v3.33a3.33 3.33 0 00-3.33 3.33h-9.99a3.33 3.33 0 00-3.33-3.33v-3.33a3.33 3.33 0 003.33-3.33h9.99a3.33 3.33 0 003.33 3.33zm-16.65-3.33h1.665c0 .92-.745 1.665-1.665 1.665V1.665z" fill="#FFBB01"></path>
    <path d="M24.971 9.99a3.33 3.33 0 100-6.66 3.33 3.33 0 000 6.66zm0-4.995a1.665 1.665 0 110 3.33 1.665 1.665 0 010-3.33zm6.66 1.665a.833.833 0 11-1.665 0 .833.833 0 011.665 0zm-11.655 0a.833.833 0 11-1.665 0 .833.833 0 011.665 0zm29.829-1.29L46.475.375a.832.832 0 00-1.382 0l-3.33 4.995a.832.832 0 00-.142.457v3.33a.833.833 0 001.665 0v-3.08l2.498-3.746 2.498 3.746v8.908a.833.833 0 001.665 0V5.827a.831.831 0 00-.142-.457z" fill="#FFBB01"></path>
    <path d="M46.617 11.655V6.66a.833.833 0 00-1.665 0v4.995a.833.833 0 001.665 0zM.829 7.493h.832v9.99a.833.833 0 001.665 0V6.66a.833.833 0 00-.832-.832h-.05L4.99 2.265l2.55 3.563h-.05a.833.833 0 00-.833.832v1.665a.833.833 0 001.665 0v-.832h.833a.833.833 0 00.674-1.316L5.666.35a.833.833 0 00-1.35 0L.155 6.177A.832.832 0 00.83 7.493z" fill="#FFBB01"></path>
    <path d="M4.991 11.655v2.498a.833.833 0 001.665 0v-2.498a.833.833 0 00-1.665 0z" fill="#FFBB01"></path>
  </symbol>
  <symbol fill="none" xmlns="http://www.w3.org/2000/svg" viewBox="0 0 50 50" id="conversation-img">
    <path d="M44.262 47.541H4.918a.82.82 0 000 1.64h39.344a.82.82 0 000-1.64zM9.016 29.508a4.099 4.099 0 014.099 4.099v3.278a.82.82 0 101.64 0v-3.278a5.738 5.738 0 00-4.1-5.5v-1.96a4.098 4.098 0 003.28-4.016v-4.205a3.279 3.279 0 002.458-3.172v-2.459a.82.82 0 00-.82-.82H6.558a4.918 4.918 0 00-4.918 4.918v3.28a3.28 3.28 0 002.46 3.171v5.263a5.738 5.738 0 00-4.1 5.5v11.475a.82.82 0 001.64 0V33.607a4.099 4.099 0 014.098-4.099h3.278zm3.28-7.377a2.46 2.46 0 01-2.46 2.46H5.738v-1.64h.82a1.64 1.64 0 001.639-1.64v-3.278h4.098v4.098zm-9.017-2.459v-3.279a3.279 3.279 0 013.278-3.278h8.197v1.64a1.64 1.64 0 01-1.64 1.638H7.378a.82.82 0 00-.82.82v4.098h-1.64a1.64 1.64 0 01-1.64-1.639zm2.459 6.558h3.278v1.639H5.738v-1.64zm40.983-2.46v-2.196A5.737 5.737 0 0050 16.394v-.82a5.737 5.737 0 00-5.738-5.738h-8.196a4.099 4.099 0 00-4.099 4.5 4.18 4.18 0 003.279 3.59v4.205a4.098 4.098 0 003.279 4.016v1.96a5.738 5.738 0 00-4.099 5.5v3.278a.82.82 0 101.64 0v-3.279a4.099 4.099 0 014.098-4.098h3.279a4.098 4.098 0 014.098 4.098v11.476a.82.82 0 001.64 0V33.606a5.738 5.738 0 00-4.099-5.5V26.09a2.459 2.459 0 001.64-2.32zm-13.114-9.59a2.46 2.46 0 01.639-1.885 2.458 2.458 0 011.82-.82h8.196a4.099 4.099 0 014.099 4.099v.82a4.099 4.099 0 01-2.664 3.836h-.066a4.014 4.014 0 01-1.188.229h-1.82a.82.82 0 01-.82-.82v-2.426a.82.82 0 00-.82-.82h-4.778a2.565 2.565 0 01-2.598-2.213zm3.278 7.951v-4.098h3.279v1.64a2.46 2.46 0 002.459 2.458h1.885c.197 0 .386 0 .574-.05v1.69a.82.82 0 01-.82.82h-4.918a2.46 2.46 0 01-2.459-2.46zm3.279 5.738v-1.64h3.279v1.64h-3.279z" fill="#FFBB01"></path>
    <path d="M44.262 33.607a.82.82 0 00-.82.82v7.376a2.46 2.46 0 01-2.458 2.46h-8.197v-3.28h6.557a.82.82 0 00.82-.82v-5.737a.82.82 0 00-1.64 0v4.918h-8.196a3.279 3.279 0 00-2.836 4.918h-5.803a3.278 3.278 0 00-2.837-4.918h-8.196v-4.918a.82.82 0 00-1.64 0v5.738c0 .453.367.82.82.82h6.557v3.278H8.197a2.46 2.46 0 01-2.46-2.459v-7.377a.82.82 0 00-1.639 0v7.377a4.099 4.099 0 004.099 4.099h32.787a4.099 4.099 0 004.098-4.099v-7.377a.82.82 0 00-.82-.82zm-26.23 10.655v-3.278h.82a1.64 1.64 0 010 3.278h-.82zm10.657-1.639c0-.905.734-1.64 1.639-1.64h.82v3.28h-.82a1.64 1.64 0 01-1.64-1.64zM9.016 9.836H26.23a3.279 3.279 0 003.278-3.279V2.46A2.46 2.46 0 0027.05 0H15.574a2.46 2.46 0 00-2.46 2.459v1.303l-4.68 4.672a.82.82 0 00-.172.894.82.82 0 00.754.508zm5.5-5.156a.82.82 0 00.238-.582V2.46a.82.82 0 01.82-.82h11.475a.82.82 0 01.82.82v4.098a1.64 1.64 0 01-1.64 1.64H10.993l3.524-3.517z" fill="#FFBB01"></path>
    <path d="M20.492 4.098h-3.279a.82.82 0 000 1.64h3.279a.82.82 0 000-1.64zm4.918 0h-1.64a.82.82 0 000 1.64h1.64a.82.82 0 000-1.64zm-5.738 13.935a2.46 2.46 0 00-2.459 2.459v8.197a2.46 2.46 0 002.46 2.459h4.532l3.852 4.623a.82.82 0 001.451-.525v-4.099a2.46 2.46 0 002.46-2.458v-8.197a2.46 2.46 0 00-2.46-2.46h-9.836zm10.656 2.459v8.197a.82.82 0 01-.82.82h-.82a.82.82 0 00-.82.819v2.656l-2.647-3.18a.82.82 0 00-.63-.296h-4.919a.82.82 0 01-.82-.82v-8.196a.82.82 0 01.82-.82h9.836a.82.82 0 01.82.82z" fill="#FFBB01"></path>
    <path d="M21.311 22.95h2.46a.82.82 0 000-1.639h-2.46a.82.82 0 100 1.64zm5.739 3.28h-5.74a.82.82 0 000 1.639h5.738a.82.82 0 100-1.64zm.819-3.28h-1.64a.82.82 0 000 1.64h1.64a.82.82 0 100-1.64z" fill="#FFBB01"></path>
  </symbol>
</svg>